<mxfile host="app.diagrams.net" modified="2023-10-04T10:27:55.613Z" agent="Mozilla/5.0 (Windows NT 10.0; Win64; x64; rv:109.0) Gecko/20100101 Firefox/118.0" version="22.0.2" etag="Nw1PikU2FTd1giugu1jR" type="github">
  <diagram name="Страница — 1" id="Qyi4i4kpBC0GC5WjwveF">
    <mxGraphModel>
      <root>
        <mxCell id="0" />
        <mxCell id="1" parent="0" />
      </root>
    </mxGraphModel>
  </diagram>
</mxfile>
